# xmcd
#
# Track frame offsets:
#	150
#	12562
#	22080
#	35001
#	47632
#	60213
#	69902
#	80664
#	92130
#	106078
#	117646
#	132538
#	145626
#	156737
#	167827
#	179369
#	191105
#	203086
#	214205
#	224732
#
# Disc length: 3152 seconds
#
# Revision: 1
# Processed by: cddbd v1.5.2PL0 Copyright (c) Steve Scherf et al.
# Submitted via: audiograbber 1.83.01
#
DISCID=340c4e14
DTITLE=Various Artist - Sea Of Heartbreak - 60 Classic Country Love Songs CD3
DYEAR=2019
DGENRE=Country
TTITLE0=Johnny Cash - I Walk The Line
TTITLE1=Burl Yves - A Little Bitty Tear
TTITLE2=Patsy Cline - I Fall To Pieces
TTITLE3=Jerry Lee Lewis - Crazy Arms
TTITLE4=Skeets McDonald - Don't Let The Stars Get In Your Eyes
TTITLE5=Skeeter Davis - Am I That Easy To Forget?
TTITLE6=Jimmie Rodgers - Kisses Sweeter Than Wine
TTITLE7=Don Gibson - Oh Lonesome Me
TTITLE8=Patti Page - Tennessee Waltz
TTITLE9=Hank Locklin - Send Me The Pillow You Dream On
TTITLE10=Marty Robbins - Don't Worry
TTITLE11=Jim Reeves - Have I Told You Lately That I Love You?
TTITLE12=Charlie Walker - Pick Me Up On Your Way Down
TTITLE13=Kitty Wells - Searching (For Someone Like You)
TTITLE14=Sonny James - Young Love
TTITLE15=Jean Shepard - I Love You Because
TTITLE16=Wanda Jackson - Right Or Wrong
TTITLE17=Buck Owens - Above And Beyond (The Call Of Love)
TTITLE18=Loretty Lynn - I'm A Honky Tonk Girl
TTITLE19=George Jones - You're Still On My Mind
EXTD=
EXTT0=
EXTT1=
EXTT2=
EXTT3=
EXTT4=
EXTT5=
EXTT6=
EXTT7=
EXTT8=
EXTT9=
EXTT10=
EXTT11=
EXTT12=
EXTT13=
EXTT14=
EXTT15=
EXTT16=
EXTT17=
EXTT18=
EXTT19=
PLAYORDER=
